<svg width="587" height="118" viewBox="0 0 587 118" fill="none" xmlns="http://www.w3.org/2000/svg">
<path d="M8.448 118V22.64H45.056C51.6267 22.64 57.4293 23.792 62.464 26.096C67.584 28.4 71.5947 31.8133 74.496 36.336C77.3973 40.8587 78.848 46.448 78.848 53.104C78.848 59.5893 77.3547 65.0933 74.368 69.616C71.4667 74.1387 67.456 77.5947 62.336 79.984C57.3013 82.288 51.5413 83.44 45.056 83.44H28.288V118H8.448ZM28.288 66.16H45.184C48 66.16 50.432 65.6053 52.48 64.496C54.528 63.3867 56.1067 61.8507 57.216 59.888C58.4107 57.9253 59.008 55.664 59.008 53.104C59.008 50.4587 58.4107 48.1547 57.216 46.192C56.1067 44.2293 54.528 42.6933 52.48 41.584C50.432 40.4747 48 39.92 45.184 39.92H28.288V66.16Z" fill="black"/>
<path d="M125.728 91.536C118.816 91.536 112.501 89.9573 106.784 86.8C101.152 83.6427 96.6293 79.3333 93.216 73.872C89.888 68.3253 88.224 62.0533 88.224 55.056C88.224 47.9733 89.888 41.7013 93.216 36.24C96.6293 30.7787 101.152 26.4693 106.784 23.312C112.501 20.1547 118.816 18.576 125.728 18.576C132.64 18.576 138.912 20.1547 144.544 23.312C150.176 26.4693 154.656 30.7787 157.984 36.24C161.397 41.7013 163.104 47.9733 163.104 55.056C163.104 62.0533 161.397 68.3253 157.984 73.872C154.656 79.3333 150.176 83.6427 144.544 86.8C138.912 89.9573 132.64 91.536 125.728 91.536ZM125.728 74.256C129.227 74.256 132.256 73.4453 134.816 71.824C137.461 70.2027 139.509 67.9413 140.96 65.04C142.496 62.1387 143.264 58.8107 143.264 55.056C143.264 51.3013 142.496 48.016 140.96 45.2C139.509 42.2987 137.461 40.0373 134.816 38.416C132.256 36.7093 129.227 35.856 125.728 35.856C122.229 35.856 119.157 36.7093 116.512 38.416C113.867 40.0373 111.776 42.2987 110.24 45.2C108.789 48.016 108.064 51.3013 108.064 55.056C108.064 58.8107 108.789 62.1387 110.24 65.04C111.776 67.9413 113.867 70.2027 116.512 71.824C119.157 73.4453 122.229 74.256 125.728 74.256Z" fill="black"/>
<path d="M175.04 118V21.104H194.24V118H175.04Z" fill="black"/>
<path d="M288.04 90V20.112H305.96V33.936L304.936 30.864C306.557 26.6827 309.16 23.6107 312.744 21.648C316.413 19.6 320.68 18.576 325.544 18.576C330.835 18.576 335.443 19.6853 339.368 21.904C343.379 24.1227 346.493 27.2373 348.712 31.248C350.931 35.1733 352.04 39.7813 352.04 45.072V90H332.84V49.168C332.84 46.4373 332.285 44.0907 331.176 42.128C330.152 40.1653 328.659 38.6293 326.696 37.52C324.819 36.4107 322.6 35.856 320.04 35.856C317.565 35.856 315.347 36.4107 313.384 37.52C311.421 38.6293 309.885 40.1653 308.776 42.128C307.752 44.0907 307.24 46.4373 307.24 49.168V90H288.04Z" fill="black"/>
<path d="M288.04 90V20.112H305.96V33.936L304.936 30.864C306.557 26.6827 309.16 23.6107 312.744 21.648C316.413 19.6 320.68 18.576 325.544 18.576C330.835 18.576 335.443 19.6853 339.368 21.904C343.379 24.1227 346.493 27.2373 348.712 31.248C350.931 35.1733 352.04 39.7813 352.04 45.072V90H332.84V49.168C332.84 46.4373 332.285 44.0907 331.176 42.128C330.152 40.1653 328.659 38.6293 326.696 37.52C324.819 36.4107 322.6 35.856 320.04 35.856C317.565 35.856 315.347 36.4107 313.384 37.52C311.421 38.6293 309.885 40.1653 308.776 42.128C307.752 44.0907 307.24 46.4373 307.24 49.168V90H288.04Z" fill="black"/>
<path d="M432.704 90.768C424.256 90.768 417.685 88.5067 412.992 83.984C408.384 79.376 406.08 72.976 406.08 64.784V36.752H394.304V20.112H394.944C398.528 20.112 401.259 19.216 403.136 17.424C405.099 15.632 406.08 12.944 406.08 9.35999V4.24H425.28V20.112H441.664V36.752H425.28V63.504C425.28 65.8933 425.707 67.8987 426.56 69.52C427.413 71.056 428.736 72.208 430.528 72.976C432.32 73.744 434.539 74.128 437.184 74.128C437.781 74.128 438.464 74.0853 439.232 74C440 73.9147 440.811 73.8293 441.664 73.744V90C440.384 90.1707 438.933 90.3413 437.312 90.512C435.691 90.6827 434.155 90.768 432.704 90.768Z" fill="black"/>
<path d="M474.672 91.536C469.637 91.536 465.285 90.7253 461.616 89.104C457.947 87.4827 455.131 85.1787 453.168 82.192C451.205 79.12 450.224 75.4933 450.224 71.312C450.224 67.3867 451.12 63.9307 452.912 60.944C454.704 57.872 457.435 55.312 461.104 53.264C464.859 51.216 469.509 49.7653 475.056 48.912L496.432 45.456V59.536L478.512 62.736C475.781 63.248 473.691 64.144 472.24 65.424C470.789 66.6187 470.064 68.368 470.064 70.672C470.064 72.8053 470.875 74.4693 472.496 75.664C474.117 76.8587 476.123 77.456 478.512 77.456C481.669 77.456 484.443 76.7733 486.832 75.408C489.221 74.0427 491.056 72.208 492.336 69.904C493.701 67.5147 494.384 64.912 494.384 62.096V43.92C494.384 41.2747 493.317 39.056 491.184 37.264C489.136 35.472 486.32 34.576 482.736 34.576C479.323 34.576 476.293 35.5147 473.648 37.392C471.088 39.2693 469.211 41.744 468.016 44.816L452.656 37.52C454.021 33.5947 456.197 30.224 459.184 27.408C462.171 24.592 465.755 22.416 469.936 20.88C474.117 19.344 478.683 18.576 483.632 18.576C489.52 18.576 494.725 19.6427 499.248 21.776C503.771 23.9093 507.269 26.896 509.744 30.736C512.304 34.4907 513.584 38.8853 513.584 43.92V90H495.664V78.736L500.016 77.968C497.968 81.04 495.707 83.6 493.232 85.648C490.757 87.6107 487.984 89.0613 484.912 90C481.84 91.024 478.427 91.536 474.672 91.536Z" fill="black"/>
<path d="M555.432 91.536C547.752 91.536 541.053 89.744 535.336 86.16C529.704 82.4907 525.864 77.584 523.816 71.44L537.896 64.784C539.688 68.5387 542.12 71.4827 545.192 73.616C548.264 75.7493 551.677 76.816 555.432 76.816C558.163 76.816 560.253 76.2613 561.704 75.152C563.155 74.0427 563.88 72.5067 563.88 70.544C563.88 69.52 563.624 68.6667 563.112 67.984C562.6 67.216 561.832 66.5333 560.808 65.936C559.784 65.3387 558.504 64.8267 556.968 64.4L545.064 61.072C539.347 59.4507 534.952 56.848 531.88 53.264C528.808 49.5947 527.272 45.2853 527.272 40.336C527.272 35.984 528.381 32.1867 530.6 28.944C532.819 25.7013 535.933 23.184 539.944 21.392C543.955 19.5147 548.563 18.576 553.768 18.576C560.595 18.576 566.568 20.1973 571.688 23.44C576.893 26.5973 580.563 31.0773 582.696 36.88L568.488 43.536C567.464 40.6347 565.587 38.3307 562.856 36.624C560.211 34.832 557.181 33.936 553.768 33.936C551.293 33.936 549.331 34.448 547.88 35.472C546.515 36.496 545.832 37.904 545.832 39.696C545.832 40.6347 546.088 41.488 546.6 42.256C547.112 43.024 547.923 43.7067 549.032 44.304C550.227 44.9013 551.677 45.456 553.384 45.968L564.52 49.296C570.323 51.0027 574.76 53.6053 577.832 57.104C580.904 60.5173 582.44 64.7413 582.44 69.776C582.44 74.128 581.288 77.9253 578.984 81.168C576.765 84.4107 573.651 86.9707 569.64 88.848C565.629 90.64 560.893 91.536 555.432 91.536Z" fill="black"/>
<path d="M365.04 118V48.112H384.24V118H365.04ZM365.04 41.84V22.64H384.24V41.84H365.04Z" fill="black"/>
<path d="M234.672 91.536C229.637 91.536 225.285 90.7253 221.616 89.104C217.947 87.4827 215.131 85.1787 213.168 82.192C211.205 79.12 210.224 75.4933 210.224 71.312C210.224 67.3867 211.12 63.9307 212.912 60.944C214.704 57.872 217.435 55.312 221.104 53.264C224.859 51.216 229.509 49.7653 235.056 48.912L256.432 45.456V59.536L238.512 62.736C235.781 63.248 233.691 64.144 232.24 65.424C230.789 66.6187 230.064 68.368 230.064 70.672C230.064 72.8053 230.875 74.4693 232.496 75.664C234.117 76.8587 236.123 77.456 238.512 77.456C241.669 77.456 244.443 76.7733 246.832 75.408C249.221 74.0427 251.056 72.208 252.336 69.904C253.701 67.5147 254.384 64.912 254.384 62.096V43.92C254.384 41.2747 253.317 39.056 251.184 37.264C249.136 35.472 246.32 34.576 242.736 34.576C239.323 34.576 236.293 35.5147 233.648 37.392C231.088 39.2693 229.211 41.744 228.016 44.816L212.656 37.52C214.021 33.5947 216.197 30.224 219.184 27.408C222.171 24.592 225.755 22.416 229.936 20.88C234.117 19.344 238.683 18.576 243.632 18.576C249.52 18.576 254.725 19.6427 259.248 21.776C263.771 23.9093 267.269 26.896 269.744 30.736C272.304 34.4907 273.584 38.8853 273.584 43.92V90H255.664V78.736L260.016 77.968C257.968 81.04 255.707 83.6 253.232 85.648C250.757 87.6107 247.984 89.0613 244.912 90C241.84 91.024 238.427 91.536 234.672 91.536Z" fill="black"/>
</svg>
